PathFileType	4	(X/Y/Z)	Patient4_TMGait_0pt7_02_right_28.trc.trc
DataRate	CameraRate	NumFrames	NumMarkers	Units	OrigDataRate	OrigDataStartFrame	OrigNumFrames
85.889570552147	85.889570552147	4	33	mm	85.889570552147	124	       141
Frame#	Time	Sacral			L.Shoulder			Chest			R.Shoulder			Neck			R.ASIS			L.ASIS			R.Thigh.Superior			R.Thigh.Lateral			R.Thigh.Inferior			R.Patella			L.Thigh.Superior			L.Thigh.Lateral			L.Thigh.Inferior			L.Patella			L.Shank.Superior			L.Shank.Lateral			L.Shank.Inferior			R.Shank.Superior			R.Shank.Lateral			R.Shank.Inferior			R.Heel			R.Midfoot.Superior			R.Midfoot.Lateral			R.Toe			L.Heel			L.Midfoot.Lateral			L.Midfoot.Superior			L.Toe			L.Elbow			L.Wrist			R.Elbow			R.Wrist			
		X1	Y1	Z1	X2	Y2	Z2	X3	Y3	Z3	X4	Y4	Z4	X5	Y5	Z5	X6	Y6	Z6	X7	Y7	Z7	X8	Y8	Z8	X9	Y9	Z9	X10	Y10	Z10	X11	Y11	Z11	X12	Y12	Z12	X13	Y13	Z13	X14	Y14	Z14	X15	Y15	Z15	X16	Y16	Z16	X17	Y17	Z17	X18	Y18	Z18	X19	Y19	Z19	X20	Y20	Z20	X21	Y21	Z21	X22	Y22	Z22	X23	Y23	Z23	X24	Y24	Z24	X25	Y25	Z25	X26	Y26	Z26	X27	Y27	Z27	X28	Y28	Z28	X29	Y29	Z29	X30	Y30	Z30	X31	Y31	Z31	X32	Y32	Z32	X33	Y33	Z33	

124	32.792071428571	845.487442796976	992.619927613243	450.301032915040	1049.625155773145	1413.488571450640	272.574697457053	1143.381222567077	1335.192659932170	435.890205397259	1059.166598830771	1414.436975273917	606.893760717202	1049.527070540649	1472.913226135411	425.862340456865	1065.124816169724	923.929481080672	577.630609766220	1062.033378985884	935.422075328887	303.008889915587	1138.450990634264	753.992128554357	551.837915475789	1092.153762111710	631.688918623200	624.926827724992	1182.705477262673	597.000400188020	546.754080351635	1213.190498057329	513.974380734444	561.883884590388	1050.864108398773	709.043961574426	329.271650513112	928.959718115055	624.696426225565	261.067293695256	980.301576526010	524.674616864119	324.065059081809	960.164356770289	456.979220362870	331.228938571157	917.875631685133	394.500557429887	320.543058316428	803.945448647970	306.425049819322	265.380194447459	822.734976601235	184.748374868140	333.259122167788	1199.094417560125	422.894470463498	573.560211954095	1145.539324260536	309.396199664894	636.768141041023	1214.697126048424	223.599315136126	584.617149430764	1119.817653010845	42.377570116123	557.403895458279	1283.675515036593	111.450359740984	595.239632746597	1204.605107250306	39.184446218154	629.277370355515	1407.879888286902	71.274282704065	619.477956829090	666.953401661835	45.258012317273	366.467974352595	742.180600604798	38.098138766154	288.034289502813	827.682751303191	95.499436192412	316.508091059437	954.255381124055	38.898769837938	288.402062682259	1139.459475234786	1105.780481720432	114.644297481054	1375.530982362570	1139.440279582296	198.227250696009	926.643136600281	1097.096201284953	727.157788848180	893.848881623290	837.500351355802	733.290927379133	
125	32.803714285714	847.948931934066	990.507478355850	453.974900339450	1049.694235400764	1411.866196998382	275.589420348902	1144.840374081086	1333.923013160722	438.333771183127	1061.296665944669	1412.710078203358	609.888710707290	1050.683236259421	1471.314786610880	428.954699957382	1068.449605582603	921.562792167119	580.053355258620	1064.034738555411	933.817594261492	305.596180855292	1142.108009769563	751.444852784575	554.022101280832	1094.059951259617	629.048743680700	625.447915298328	1185.181583889206	594.755871182972	547.874896322302	1214.265012613788	510.743018935970	561.810166958086	1052.981251162546	707.315046070440	331.056815157668	930.782257734623	622.921587132353	263.385575717354	982.882021922170	522.480462357745	325.562132590485	962.708680328571	453.667471247938	332.143839530588	918.038204117730	392.153020126723	321.677010112727	801.631997502041	307.250741018144	266.533002185704	817.647704689696	184.781240800722	333.432489139373	1199.314064414889	419.336589464648	573.086849416787	1144.244535938531	306.446919989837	636.008074453761	1211.477083906379	219.868811256178	583.110266421366	1112.570779824404	41.696238477343	555.825427854504	1277.878460111391	107.200569902698	593.330742342276	1196.974903920816	37.721535267131	628.208985837471	1401.254759887992	64.347769326858	618.308909319536	659.069907065082	48.121958458753	366.152435927308	734.235470551005	39.447725616115	287.896208389110	820.591332347368	95.804440955659	316.189016947303	946.155167800542	38.724742903371	288.331743287185	1139.654247842614	1103.774651929634	117.789744119292	1374.490825172499	1143.046797489356	201.855091079281	925.354658522362	1097.334062777165	730.117204606144	887.362046917100	838.469926547156	733.170531444542	
126	32.815357142857	850.199353289307	988.848550626258	457.619513548722	1050.129833392804	1410.528874535744	278.668289407311	1146.446702112711	1332.886430467684	440.951899550057	1063.545752639247	1411.329690370882	612.969362952281	1052.116900832500	1470.065933025110	432.138501803465	1071.567893132252	919.684938446131	582.665498353268	1065.872910496919	932.553089063829	308.235174640489	1145.865423248462	749.746459851194	556.129211441124	1096.451071085855	627.261972146823	625.991504099788	1187.981952715867	593.301907293110	548.860756655763	1215.866383877148	508.194665793897	561.689217574751	1055.662960359663	705.986413833126	333.042472992241	933.630905741411	621.065723867834	265.858732312422	986.968918728462	520.358070843264	327.165686810475	966.882334341190	450.223233120314	333.015063075036	919.509772236787	389.770408423776	322.834613339926	800.448730448152	308.535249409417	267.770660847688	813.340348203153	185.256409176420	333.578020826668	1199.789958344565	416.441116026045	572.565022646258	1143.163761927137	304.363031794988	635.563970025122	1207.882480563489	216.744682485255	581.690619768463	1104.395867526192	41.509265803339	554.721551783253	1271.236003220492	103.630763660950	591.593023484598	1188.549591516078	36.823907174005	627.479016188829	1393.823594954303	58.173771350158	617.156387129003	651.536477183641	52.261255028038	365.849571630796	726.473120400613	41.567025522098	287.769647386065	813.968596489168	96.343227197670	315.780387696940	937.998148624918	38.471474340236	288.275984040171	1138.850688527919	1101.447924999912	121.103213436950	1372.772394695414	1145.179017307014	205.266716259200	924.835106863170	1097.507470450906	733.001162332830	882.368639516611	839.266826840953	733.359206378644	
127	32.827000000000	852.205466744965	987.698735066630	461.198296822793	1050.957441854153	1409.539344767765	281.770534301279	1148.183723307501	1332.116640468803	443.711142801441	1065.908059907144	1410.364250917761	616.089825765961	1053.834923897809	1469.216211592428	435.357810104831	1074.429757445816	918.367692323232	585.445041534155	1067.489209187046	931.682646407535	310.865925668082	1149.539710779516	748.886090765896	558.137928552479	1099.175506408674	626.329136195374	626.663177638328	1190.864549564334	592.552896943274	549.760981337730	1217.738727791709	506.316405607823	561.665449619213	1058.879897486302	705.125662337403	335.196156335929	937.540452327655	619.170729981295	268.429907800784	992.611284255925	518.384509641504	328.831772937948	972.715107706635	446.759827804473	333.798624213413	922.382215481904	387.445575449811	323.971026986232	800.516909999234	310.376840070881	269.085901551540	809.961926945550	186.301042880324	333.706698568335	1200.352026051094	414.224997639872	572.141835437393	1142.207829476675	303.094556178268	635.501564437052	1204.010337345243	214.280295979327	580.489806523802	1095.755951429120	41.669452318745	554.082525407949	1264.045179295552	100.856858648706	590.154877526939	1179.772907658458	36.399321198101	627.087217337891	1385.943046253366	53.079376725473	616.165184047345	644.527712498420	57.928646494520	365.618114886903	718.998006710210	44.680188496533	287.690408710303	807.929774081037	97.197914864855	315.312794779570	929.773833825684	38.100923565043	288.243329297882	1137.015856661288	1098.872842797717	124.599114732260	1370.440173858019	1145.783842818850	208.460713734541	925.090561072426	1097.646095476094	735.761975352135	878.943448630961	839.885341370355	733.903834702338	
